<svg viewBox="0 0 24 24" xmlns="http://www.w3.org/2000/svg">
  <defs>
    <linearGradient id="organizerGradient" x1="0%" y1="0%" x2="100%" y2="100%">
      <stop offset="0%" style="stop-color:#3b82f6;stop-opacity:1" />
      <stop offset="100%" style="stop-color:#1d4ed8;stop-opacity:1" />
    </linearGradient>
  </defs>
  
  <!-- 主要文档图标 -->
  <path d="M4 6H2v14c0 1.1.9 2 2 2h14v-2H4V6z" fill="url(#organizerGradient)" opacity="0.3"/>
  <path d="M20 2H8c-1.1 0-2 .9-2 2v12c0 1.1.9 2 2 2h12c1.1 0 2-.9 2-2V4c0-1.1-.9-2-2-2z" fill="url(#organizerGradient)"/>
  
  <!-- 内容行 -->
  <rect x="10" y="6" width="8" height="1.5" fill="white" opacity="0.9"/>
  <rect x="10" y="9" width="6" height="1.5" fill="white" opacity="0.7"/>
  <rect x="10" y="12" width="8" height="1.5" fill="white" opacity="0.9"/>
  
  <!-- 标签图标 -->
  <circle cx="17" cy="15" r="3" fill="#10b981"/>
  <path d="M15.5 15l1 1 2-2" stroke="white" stroke-width="1.5" fill="none" stroke-linecap="round" stroke-linejoin="round"/>
</svg>

